# xmcd
#
# Track frame offsets:
#	150
#	15556
#	25036
#	42504
#	56966
#	68926
#	85508
#	101494
#	113184
#	132178
#	143247
#	156206
#
# Disc length: 2255 seconds
#
# Revision: 0
# Processed by: cddbd v1.5.1PL0 Copyright (c) Steve Scherf et al.
# Submitted via: EasyCDDAExtractor 7.5.2.1
#
DISCID=9d08cd0c
DTITLE=Teddy Nelson - Fra Hardanger Til Karasjok
DYEAR=1999
DGENRE=Country
TTITLE0=Skilsmisseferd i Hardanger
TTITLE1=Ola med sjød'n
TTITLE2=Det er sommeren jeg liker best
TTITLE3=Fest i Karasjok (Big Mamou)
TTITLE4=Neonlys og kvinner (Southern Comfort)
TTITLE5=Mia og Mari
TTITLE6=Barndomsmøte
TTITLE7=Flyskrekk (Redneck)
TTITLE8=Han visste et sted
TTITLE9=Lutefisk med steikt flesk
TTITLE10=Avsted igjen
TTITLE11=Langs en landevei
EXTD=
EXTT0=
EXTT1=
EXTT2=
EXTT3=
EXTT4=
EXTT5=
EXTT6=
EXTT7=
EXTT8=
EXTT9=
EXTT10=
EXTT11=
PLAYORDER=
